<svg width="337" height="244" viewBox="0 0 337 244" fill="none" xmlns="http://www.w3.org/2000/svg">
<path d="M10.025 229.5V230.73H6.995V240H5.63V230.73H2.6V229.5H10.025ZM13.8692 240.15C12.7892 240.15 11.8892 239.78 11.1692 239.04C10.4592 238.29 10.1042 237.36 10.1042 236.25C10.1042 235.12 10.4592 234.19 11.1692 233.46C11.8792 232.72 12.7792 232.35 13.8692 232.35C14.9492 232.35 15.8492 232.72 16.5692 233.46C17.2892 234.2 17.6492 235.13 17.6492 236.25C17.6492 237.37 17.2892 238.3 16.5692 239.04C15.8592 239.78 14.9592 240.15 13.8692 240.15ZM12.0992 238.2C12.5592 238.73 13.1492 238.995 13.8692 238.995C14.5892 238.995 15.1792 238.73 15.6392 238.2C16.1092 237.66 16.3442 237.01 16.3442 236.25C16.3442 235.48 16.1092 234.83 15.6392 234.3C15.1792 233.77 14.5892 233.505 13.8692 233.505C13.1392 233.505 12.5492 233.77 12.0992 234.3C11.6492 234.83 11.4242 235.48 11.4242 236.25C11.4242 237.01 11.6492 237.66 12.0992 238.2ZM24.9048 229.35H26.2098V240H25.1298L25.0098 238.935H24.9198C24.3398 239.745 23.5348 240.15 22.5048 240.15C21.4948 240.15 20.6648 239.79 20.0148 239.07C19.3748 238.34 19.0548 237.395 19.0548 236.235C19.0548 235.065 19.3748 234.125 20.0148 233.415C20.6648 232.705 21.4948 232.35 22.5048 232.35C23.5648 232.35 24.3648 232.73 24.9048 233.49V229.35ZM22.6698 238.995C23.3398 238.995 23.8798 238.745 24.2898 238.245C24.6998 237.735 24.9048 237.065 24.9048 236.235C24.9048 235.425 24.6998 234.77 24.2898 234.27C23.8798 233.76 23.3398 233.505 22.6698 233.505C21.9898 233.505 21.4348 233.76 21.0048 234.27C20.5748 234.77 20.3598 235.425 20.3598 236.235C20.3598 237.055 20.5748 237.72 21.0048 238.23C21.4348 238.74 21.9898 238.995 22.6698 238.995ZM34.6471 238.98H34.8421V240H34.2421C33.5021 240 33.0571 239.68 32.9071 239.04C32.3271 239.78 31.5021 240.15 30.4321 240.15C29.6921 240.15 29.0921 239.97 28.6321 239.61C28.1821 239.24 27.9571 238.705 27.9571 238.005C27.9571 237.325 28.1871 236.795 28.6471 236.415C29.1171 236.025 29.7371 235.79 30.5071 235.71L32.7421 235.5V235.08C32.7421 234.56 32.6071 234.155 32.3371 233.865C32.0671 233.575 31.6821 233.43 31.1821 233.43C30.2821 233.43 29.7421 233.905 29.5621 234.855H28.2571C28.3371 234.115 28.6321 233.515 29.1421 233.055C29.6621 232.585 30.3421 232.35 31.1821 232.35C32.0521 232.35 32.7471 232.59 33.2671 233.07C33.7971 233.55 34.0621 234.23 34.0621 235.11V238.365C34.0621 238.775 34.2571 238.98 34.6471 238.98ZM32.7421 237.12V236.46L30.9271 236.64C30.4171 236.69 30.0121 236.825 29.7121 237.045C29.4221 237.265 29.2771 237.57 29.2771 237.96C29.2771 238.35 29.4021 238.64 29.6521 238.83C29.9021 239.01 30.2221 239.1 30.6121 239.1C31.1821 239.1 31.6771 238.94 32.0971 238.62C32.5271 238.29 32.7421 237.79 32.7421 237.12ZM36.7321 243.15C36.4221 243.15 36.0671 243.095 35.6671 242.985V241.98C35.9871 242.05 36.2571 242.085 36.4771 242.085C37.2471 242.085 37.7821 241.715 38.0821 240.975L38.4721 240H38.0221L35.1421 232.5H36.5071L38.8171 238.635H38.9221L41.1121 232.5H42.4771L39.3271 241.17C39.2671 241.35 39.2071 241.495 39.1471 241.605C39.0971 241.725 39.0021 241.89 38.8621 242.1C38.7221 242.32 38.5671 242.495 38.3971 242.625C38.2271 242.765 37.9921 242.885 37.6921 242.985C37.4021 243.095 37.0821 243.15 36.7321 243.15Z" fill="black"/>
<path d="M235.67 229.5V240H234.305V229.5H235.67ZM238.064 240V232.5H239.249L239.369 233.4H239.474C239.984 232.7 240.709 232.35 241.649 232.35C242.469 232.35 243.129 232.605 243.629 233.115C244.129 233.625 244.379 234.35 244.379 235.29V240H243.074V235.575C243.074 234.885 242.909 234.37 242.579 234.03C242.259 233.68 241.839 233.505 241.319 233.505C240.769 233.505 240.304 233.695 239.924 234.075C239.554 234.445 239.369 234.995 239.369 235.725V240H238.064ZM253.275 240.15C252.565 240.15 252.065 239.975 251.775 239.625C251.495 239.265 251.355 238.825 251.355 238.305V233.565H249.765V232.5H250.275C250.715 232.5 251.025 232.42 251.205 232.26C251.385 232.09 251.475 231.8 251.475 231.39V230.46H252.675V232.5H254.55V233.565H252.675V238.125C252.675 238.755 252.99 239.07 253.62 239.07C253.86 239.07 254.11 239.03 254.37 238.95V239.985C253.97 240.095 253.605 240.15 253.275 240.15ZM257.339 240L255.449 232.5H256.694L258.089 238.485H258.194L259.814 233.04H261.269L262.874 238.485H262.979L264.389 232.5H265.634L263.714 240H262.184L260.594 234.495H260.489L258.854 240H257.339ZM270.24 240.15C269.16 240.15 268.26 239.78 267.54 239.04C266.83 238.29 266.475 237.36 266.475 236.25C266.475 235.12 266.83 234.19 267.54 233.46C268.25 232.72 269.15 232.35 270.24 232.35C271.32 232.35 272.22 232.72 272.94 233.46C273.66 234.2 274.02 235.13 274.02 236.25C274.02 237.37 273.66 238.3 272.94 239.04C272.23 239.78 271.33 240.15 270.24 240.15ZM268.47 238.2C268.93 238.73 269.52 238.995 270.24 238.995C270.96 238.995 271.55 238.73 272.01 238.2C272.48 237.66 272.715 237.01 272.715 236.25C272.715 235.48 272.48 234.83 272.01 234.3C271.55 233.77 270.96 233.505 270.24 233.505C269.51 233.505 268.92 233.77 268.47 234.3C268.02 234.83 267.795 235.48 267.795 236.25C267.795 237.01 268.02 237.66 268.47 238.2ZM279.9 240V232.5H281.085L281.205 233.4H281.31C281.79 232.7 282.465 232.35 283.335 232.35C284.325 232.35 285.005 232.79 285.375 233.67H285.465C285.955 232.79 286.725 232.35 287.775 232.35C288.515 232.35 289.11 232.575 289.56 233.025C290.01 233.475 290.235 234.125 290.235 234.975V240H288.915V235.23C288.915 234.67 288.77 234.245 288.48 233.955C288.19 233.655 287.83 233.505 287.4 233.505C286.9 233.505 286.495 233.685 286.185 234.045C285.875 234.395 285.72 234.855 285.72 235.425V240H284.4V235.335C284.4 234.745 284.255 234.295 283.965 233.985C283.685 233.665 283.325 233.505 282.885 233.505C282.445 233.505 282.055 233.67 281.715 234C281.375 234.32 281.205 234.785 281.205 235.395V240H279.9ZM295.699 240.15C294.619 240.15 293.719 239.78 292.999 239.04C292.289 238.29 291.934 237.36 291.934 236.25C291.934 235.12 292.289 234.19 292.999 233.46C293.709 232.72 294.609 232.35 295.699 232.35C296.779 232.35 297.679 232.72 298.399 233.46C299.119 234.2 299.479 235.13 299.479 236.25C299.479 237.37 299.119 238.3 298.399 239.04C297.689 239.78 296.789 240.15 295.699 240.15ZM293.929 238.2C294.389 238.73 294.979 238.995 295.699 238.995C296.419 238.995 297.009 238.73 297.469 238.2C297.939 237.66 298.174 237.01 298.174 236.25C298.174 235.48 297.939 234.83 297.469 234.3C297.009 233.77 296.419 233.505 295.699 233.505C294.969 233.505 294.379 233.77 293.929 234.3C293.479 234.83 293.254 235.48 293.254 236.25C293.254 237.01 293.479 237.66 293.929 238.2ZM301.213 240V232.5H302.398L302.518 233.4H302.623C303.133 232.7 303.858 232.35 304.798 232.35C305.618 232.35 306.278 232.605 306.778 233.115C307.278 233.625 307.528 234.35 307.528 235.29V240H306.223V235.575C306.223 234.885 306.058 234.37 305.728 234.03C305.408 233.68 304.988 233.505 304.468 233.505C303.918 233.505 303.453 233.695 303.073 234.075C302.703 234.445 302.518 234.995 302.518 235.725V240H301.213ZM312.132 240.15C311.422 240.15 310.922 239.975 310.632 239.625C310.352 239.265 310.212 238.825 310.212 238.305V233.565H308.622V232.5H309.132C309.572 232.5 309.882 232.42 310.062 232.26C310.242 232.09 310.332 231.8 310.332 231.39V230.46H311.532V232.5H313.407V233.565H311.532V238.125C311.532 238.755 311.847 239.07 312.477 239.07C312.717 239.07 312.967 239.03 313.227 238.95V239.985C312.827 240.095 312.462 240.15 312.132 240.15ZM318.377 232.35C319.197 232.35 319.857 232.605 320.357 233.115C320.857 233.625 321.107 234.35 321.107 235.29V240H319.802V235.575C319.802 234.885 319.637 234.37 319.307 234.03C318.987 233.68 318.567 233.505 318.047 233.505C317.497 233.505 317.032 233.695 316.652 234.075C316.282 234.445 316.097 234.995 316.097 235.725V240H314.792V229.35H316.097V233.4H316.202C316.712 232.7 317.437 232.35 318.377 232.35Z" fill="black"/>
<line x1="11" y1="57" x2="336" y2="57" stroke="#EDEDED" stroke-width="2" stroke-linecap="round" stroke-linejoin="round" stroke-dasharray="2 8"/>
<line x1="11" y1="107" x2="336" y2="107" stroke="#EDEDED" stroke-width="2" stroke-linecap="round" stroke-linejoin="round" stroke-dasharray="2 8"/>
<line x1="11" y1="157" x2="336" y2="157" stroke="#EDEDED" stroke-width="2" stroke-linecap="round" stroke-linejoin="round" stroke-dasharray="2 8"/>
<line x1="11" y1="207" x2="336" y2="207" stroke="#EDEDED" stroke-width="2" stroke-linecap="round" stroke-linejoin="round" stroke-dasharray="2 8"/>
<circle cx="14" cy="58" r="4" fill="#8C96FF"/>
<circle cx="14" cy="58" r="9" stroke="#8C96FF" stroke-opacity="0.2" stroke-width="10"/>
<circle cx="280" cy="179" r="4" fill="#8C96FF"/>
<circle cx="280" cy="179" r="9" stroke="#8C96FF" stroke-opacity="0.2" stroke-width="10"/>
<path fill-rule="evenodd" clip-rule="evenodd" d="M237 120C229.268 120 223 126.268 223 134V144C223 151.732 229.268 158 237 158H276.408C276.673 158 276.927 158.105 277.115 158.292L279.536 160.708C279.926 161.098 280.558 161.098 280.949 160.708L283.37 158.292C283.557 158.105 283.811 158 284.076 158H323C330.732 158 337 151.732 337 144V134C337 126.268 330.732 120 323 120H237Z" fill="#8C96FF"/>
<path d="M240.939 133.9C242.352 133.9 243.431 134.312 244.176 135.135C244.921 135.95 245.294 137.055 245.294 138.45C245.294 139.828 244.921 140.933 244.176 141.765C243.439 142.588 242.36 143 240.939 143H238.131V133.9H240.939ZM240.874 141.934C241.983 141.934 242.794 141.618 243.305 140.985C243.825 140.344 244.085 139.49 244.085 138.424C244.085 137.367 243.825 136.526 243.305 135.902C242.794 135.278 241.983 134.966 240.874 134.966H239.314V141.934H240.874ZM247.559 135.46C247.351 135.46 247.169 135.386 247.013 135.239C246.866 135.092 246.792 134.914 246.792 134.706C246.792 134.498 246.866 134.325 247.013 134.186C247.169 134.039 247.351 133.965 247.559 133.965C247.758 133.965 247.932 134.039 248.079 134.186C248.226 134.325 248.3 134.498 248.3 134.706C248.3 134.914 248.226 135.092 248.079 135.239C247.932 135.386 247.758 135.46 247.559 135.46ZM246.987 143V136.5H248.118V143H246.987ZM252.145 143.13C251.339 143.13 250.719 142.939 250.286 142.558C249.861 142.177 249.632 141.665 249.597 141.024H250.702C250.78 141.83 251.261 142.233 252.145 142.233C252.492 142.233 252.778 142.159 253.003 142.012C253.237 141.856 253.354 141.626 253.354 141.323C253.354 141.002 253.233 140.755 252.99 140.582C252.756 140.409 252.431 140.261 252.015 140.14L251.573 140.023C251.33 139.954 251.127 139.884 250.962 139.815C250.797 139.746 250.615 139.646 250.416 139.516C250.217 139.377 250.065 139.2 249.961 138.983C249.857 138.766 249.805 138.515 249.805 138.229C249.805 137.666 250.017 137.215 250.442 136.877C250.875 136.539 251.395 136.37 252.002 136.37C252.73 136.37 253.293 136.552 253.692 136.916C254.091 137.28 254.303 137.718 254.329 138.229H253.224C253.198 137.943 253.077 137.713 252.86 137.54C252.643 137.358 252.362 137.267 252.015 137.267C251.694 137.267 251.426 137.345 251.209 137.501C251.001 137.657 250.897 137.882 250.897 138.177C250.897 138.324 250.927 138.454 250.988 138.567C251.049 138.671 251.144 138.762 251.274 138.84C251.413 138.918 251.534 138.979 251.638 139.022C251.751 139.065 251.911 139.117 252.119 139.178L252.535 139.308C253.107 139.464 253.566 139.694 253.913 139.997C254.268 140.292 254.446 140.725 254.446 141.297C254.446 141.904 254.229 142.363 253.796 142.675C253.363 142.978 252.812 143.13 252.145 143.13ZM258.201 143.13C257.395 143.13 256.775 142.939 256.342 142.558C255.917 142.177 255.687 141.665 255.653 141.024H256.758C256.836 141.83 257.317 142.233 258.201 142.233C258.547 142.233 258.833 142.159 259.059 142.012C259.293 141.856 259.41 141.626 259.41 141.323C259.41 141.002 259.288 140.755 259.046 140.582C258.812 140.409 258.487 140.261 258.071 140.14L257.629 140.023C257.386 139.954 257.182 139.884 257.018 139.815C256.853 139.746 256.671 139.646 256.472 139.516C256.272 139.377 256.121 139.2 256.017 138.983C255.913 138.766 255.861 138.515 255.861 138.229C255.861 137.666 256.073 137.215 256.498 136.877C256.931 136.539 257.451 136.37 258.058 136.37C258.786 136.37 259.349 136.552 259.748 136.916C260.146 137.28 260.359 137.718 260.385 138.229H259.28C259.254 137.943 259.132 137.713 258.916 137.54C258.699 137.358 258.417 137.267 258.071 137.267C257.75 137.267 257.481 137.345 257.265 137.501C257.057 137.657 256.953 137.882 256.953 138.177C256.953 138.324 256.983 138.454 257.044 138.567C257.104 138.671 257.2 138.762 257.33 138.84C257.468 138.918 257.59 138.979 257.694 139.022C257.806 139.065 257.967 139.117 258.175 139.178L258.591 139.308C259.163 139.464 259.622 139.694 259.969 139.997C260.324 140.292 260.502 140.725 260.502 141.297C260.502 141.904 260.285 142.363 259.852 142.675C259.418 142.978 258.868 143.13 258.201 143.13ZM267.516 142.116H267.685V143H267.165C266.524 143 266.138 142.723 266.008 142.168C265.505 142.809 264.79 143.13 263.863 143.13C263.222 143.13 262.702 142.974 262.303 142.662C261.913 142.341 261.718 141.878 261.718 141.271C261.718 140.682 261.917 140.222 262.316 139.893C262.723 139.555 263.261 139.351 263.928 139.282L265.865 139.1V138.736C265.865 138.285 265.748 137.934 265.514 137.683C265.28 137.432 264.946 137.306 264.513 137.306C263.733 137.306 263.265 137.718 263.109 138.541H261.978C262.047 137.9 262.303 137.38 262.745 136.981C263.196 136.574 263.785 136.37 264.513 136.37C265.267 136.37 265.869 136.578 266.32 136.994C266.779 137.41 267.009 137.999 267.009 138.762V141.583C267.009 141.938 267.178 142.116 267.516 142.116ZM265.865 140.504V139.932L264.292 140.088C263.85 140.131 263.499 140.248 263.239 140.439C262.988 140.63 262.862 140.894 262.862 141.232C262.862 141.57 262.97 141.821 263.187 141.986C263.404 142.142 263.681 142.22 264.019 142.22C264.513 142.22 264.942 142.081 265.306 141.804C265.679 141.518 265.865 141.085 265.865 140.504ZM271.05 143.13C270.435 143.13 270.001 142.978 269.75 142.675C269.507 142.363 269.386 141.982 269.386 141.531V137.423H268.008V136.5H268.45C268.831 136.5 269.1 136.431 269.256 136.292C269.412 136.145 269.49 135.893 269.49 135.538V134.732H270.53V136.5H272.155V137.423H270.53V141.375C270.53 141.921 270.803 142.194 271.349 142.194C271.557 142.194 271.774 142.159 271.999 142.09V142.987C271.652 143.082 271.336 143.13 271.05 143.13ZM273.927 135.46C273.719 135.46 273.537 135.386 273.381 135.239C273.234 135.092 273.16 134.914 273.16 134.706C273.16 134.498 273.234 134.325 273.381 134.186C273.537 134.039 273.719 133.965 273.927 133.965C274.127 133.965 274.3 134.039 274.447 134.186C274.595 134.325 274.668 134.498 274.668 134.706C274.668 134.914 274.595 135.092 274.447 135.239C274.3 135.386 274.127 135.46 273.927 135.46ZM273.355 143V136.5H274.486V143H273.355ZM278.513 143.13C277.707 143.13 277.087 142.939 276.654 142.558C276.229 142.177 276 141.665 275.965 141.024H277.07C277.148 141.83 277.629 142.233 278.513 142.233C278.86 142.233 279.146 142.159 279.371 142.012C279.605 141.856 279.722 141.626 279.722 141.323C279.722 141.002 279.601 140.755 279.358 140.582C279.124 140.409 278.799 140.261 278.383 140.14L277.941 140.023C277.698 139.954 277.495 139.884 277.33 139.815C277.165 139.746 276.983 139.646 276.784 139.516C276.585 139.377 276.433 139.2 276.329 138.983C276.225 138.766 276.173 138.515 276.173 138.229C276.173 137.666 276.385 137.215 276.81 136.877C277.243 136.539 277.763 136.37 278.37 136.37C279.098 136.37 279.661 136.552 280.06 136.916C280.459 137.28 280.671 137.718 280.697 138.229H279.592C279.566 137.943 279.445 137.713 279.228 137.54C279.011 137.358 278.73 137.267 278.383 137.267C278.062 137.267 277.794 137.345 277.577 137.501C277.369 137.657 277.265 137.882 277.265 138.177C277.265 138.324 277.295 138.454 277.356 138.567C277.417 138.671 277.512 138.762 277.642 138.84C277.781 138.918 277.902 138.979 278.006 139.022C278.119 139.065 278.279 139.117 278.487 139.178L278.903 139.308C279.475 139.464 279.934 139.694 280.281 139.997C280.636 140.292 280.814 140.725 280.814 141.297C280.814 141.904 280.597 142.363 280.164 142.675C279.731 142.978 279.18 143.13 278.513 143.13ZM284.113 135.538V136.5H285.634V137.423H284.113V143H282.969V137.423H281.643V136.5H282.969V135.434C282.969 134.905 283.125 134.498 283.437 134.212C283.757 133.917 284.191 133.77 284.737 133.77C285.101 133.77 285.439 133.835 285.751 133.965L285.543 134.81C285.352 134.749 285.148 134.719 284.932 134.719C284.386 134.719 284.113 134.992 284.113 135.538ZM292.208 142.116H292.377V143H291.857C291.216 143 290.83 142.723 290.7 142.168C290.198 142.809 289.483 143.13 288.555 143.13C287.914 143.13 287.394 142.974 286.995 142.662C286.605 142.341 286.41 141.878 286.41 141.271C286.41 140.682 286.61 140.222 287.008 139.893C287.416 139.555 287.953 139.351 288.62 139.282L290.557 139.1V138.736C290.557 138.285 290.44 137.934 290.206 137.683C289.972 137.432 289.639 137.306 289.205 137.306C288.425 137.306 287.957 137.718 287.801 138.541H286.67C286.74 137.9 286.995 137.38 287.437 136.981C287.888 136.574 288.477 136.37 289.205 136.37C289.959 136.37 290.562 136.578 291.012 136.994C291.472 137.41 291.701 137.999 291.701 138.762V141.583C291.701 141.938 291.87 142.116 292.208 142.116ZM290.557 140.504V139.932L288.984 140.088C288.542 140.131 288.191 140.248 287.931 140.439C287.68 140.63 287.554 140.894 287.554 141.232C287.554 141.57 287.663 141.821 287.879 141.986C288.096 142.142 288.373 142.22 288.711 142.22C289.205 142.22 289.634 142.081 289.998 141.804C290.371 141.518 290.557 141.085 290.557 140.504ZM296.48 143.13C295.51 143.13 294.725 142.814 294.127 142.181C293.538 141.548 293.243 140.751 293.243 139.789C293.243 138.801 293.547 137.986 294.153 137.345C294.76 136.695 295.531 136.37 296.467 136.37C297.213 136.37 297.858 136.578 298.404 136.994C298.959 137.401 299.293 137.969 299.405 138.697H298.261C298.175 138.316 297.971 137.999 297.65 137.748C297.33 137.497 296.935 137.371 296.467 137.371C295.861 137.371 295.362 137.601 294.972 138.06C294.582 138.519 294.387 139.096 294.387 139.789C294.387 140.465 294.578 141.024 294.959 141.466C295.341 141.908 295.848 142.129 296.48 142.129C297.416 142.129 298.019 141.713 298.287 140.881H299.431C299.31 141.566 298.981 142.112 298.443 142.519C297.915 142.926 297.26 143.13 296.48 143.13ZM303.156 143.13C302.541 143.13 302.108 142.978 301.856 142.675C301.614 142.363 301.492 141.982 301.492 141.531V137.423H300.114V136.5H300.556C300.938 136.5 301.206 136.431 301.362 136.292C301.518 136.145 301.596 135.893 301.596 135.538V134.732H302.636V136.5H304.261V137.423H302.636V141.375C302.636 141.921 302.909 142.194 303.455 142.194C303.663 142.194 303.88 142.159 304.105 142.09V142.987C303.759 143.082 303.442 143.13 303.156 143.13ZM306.034 135.46C305.826 135.46 305.644 135.386 305.488 135.239C305.34 135.092 305.267 134.914 305.267 134.706C305.267 134.498 305.34 134.325 305.488 134.186C305.644 134.039 305.826 133.965 306.034 133.965C306.233 133.965 306.406 134.039 306.554 134.186C306.701 134.325 306.775 134.498 306.775 134.706C306.775 134.914 306.701 135.092 306.554 135.239C306.406 135.386 306.233 135.46 306.034 135.46ZM305.462 143V136.5H306.593V143H305.462ZM311.347 143.13C310.411 143.13 309.631 142.809 309.007 142.168C308.392 141.518 308.084 140.712 308.084 139.75C308.084 138.771 308.392 137.965 309.007 137.332C309.623 136.691 310.403 136.37 311.347 136.37C312.283 136.37 313.063 136.691 313.687 137.332C314.311 137.973 314.623 138.779 314.623 139.75C314.623 140.721 314.311 141.527 313.687 142.168C313.072 142.809 312.292 143.13 311.347 143.13ZM309.813 141.44C310.212 141.899 310.723 142.129 311.347 142.129C311.971 142.129 312.483 141.899 312.881 141.44C313.289 140.972 313.492 140.409 313.492 139.75C313.492 139.083 313.289 138.519 312.881 138.06C312.483 137.601 311.971 137.371 311.347 137.371C310.715 137.371 310.203 137.601 309.813 138.06C309.423 138.519 309.228 139.083 309.228 139.75C309.228 140.409 309.423 140.972 309.813 141.44ZM316.126 143V136.5H317.153L317.257 137.28H317.348C317.79 136.673 318.418 136.37 319.233 136.37C319.943 136.37 320.515 136.591 320.949 137.033C321.382 137.475 321.599 138.103 321.599 138.918V143H320.468V139.165C320.468 138.567 320.325 138.121 320.039 137.826C319.761 137.523 319.397 137.371 318.947 137.371C318.47 137.371 318.067 137.536 317.738 137.865C317.417 138.186 317.257 138.662 317.257 139.295V143H316.126Z" fill="white"/>
<path d="M14 58C166.757 58 110.589 179 280 179" stroke="#8C96FF" stroke-width="2" stroke-linecap="round"/>
<path d="M14 179C166.757 179 110.589 58 280 58" stroke="#23786E" stroke-width="2" stroke-linecap="round"/>
<circle cx="14" cy="179" r="4" fill="#23786E"/>
<circle cx="14" cy="179" r="9" stroke="#23786E" stroke-opacity="0.2" stroke-width="10"/>
<path fill-rule="evenodd" clip-rule="evenodd" d="M232 0C224.268 0 218 6.26801 218 14V24C218 31.732 224.268 38 232 38H273.048C273.269 38 273.484 38.0732 273.659 38.2083L277.202 40.9421C277.562 41.2198 278.064 41.2198 278.424 40.9421L281.967 38.2083C282.142 38.0732 282.357 38 282.578 38H323C330.732 38 337 31.732 337 24V14C337 6.26801 330.732 0 323 0H232Z" fill="#23786E"/>
<path d="M238.656 14.9H240.086L236.81 19.697V24H235.627V19.697L232.338 14.9H233.768L236.173 18.41H236.251L238.656 14.9ZM242.794 24.13C241.858 24.13 241.078 23.8093 240.454 23.168C239.839 22.518 239.531 21.712 239.531 20.75C239.531 19.7707 239.839 18.9647 240.454 18.332C241.07 17.6907 241.85 17.37 242.794 17.37C243.73 17.37 244.51 17.6907 245.134 18.332C245.758 18.9733 246.07 19.7793 246.07 20.75C246.07 21.7207 245.758 22.5267 245.134 23.168C244.519 23.8093 243.739 24.13 242.794 24.13ZM241.26 22.44C241.659 22.8993 242.17 23.129 242.794 23.129C243.418 23.129 243.93 22.8993 244.328 22.44C244.736 21.972 244.939 21.4087 244.939 20.75C244.939 20.0827 244.736 19.5193 244.328 19.06C243.93 18.6007 243.418 18.371 242.794 18.371C242.162 18.371 241.65 18.6007 241.26 19.06C240.87 19.5193 240.675 20.0827 240.675 20.75C240.675 21.4087 240.87 21.972 241.26 22.44ZM253.008 17.5V24H251.981L251.877 23.22H251.786C251.344 23.8267 250.716 24.13 249.901 24.13C249.19 24.13 248.618 23.909 248.185 23.467C247.752 23.025 247.535 22.3967 247.535 21.582V17.5H248.666V21.335C248.666 21.933 248.805 22.3837 249.082 22.687C249.368 22.9817 249.736 23.129 250.187 23.129C250.672 23.129 251.075 22.9687 251.396 22.648C251.717 22.3187 251.877 21.8377 251.877 21.205V17.5H253.008ZM254.797 24V17.5H255.824L255.928 18.397H256.019C256.209 18.0677 256.443 17.8163 256.721 17.643C256.998 17.461 257.384 17.37 257.878 17.37H258.255V18.514C258.125 18.4967 257.93 18.488 257.67 18.488C257.115 18.488 256.686 18.683 256.383 19.073C256.079 19.4543 255.928 19.9613 255.928 20.594V24H254.797ZM263.935 24L262.297 17.5H263.376L264.585 22.687H264.676L266.08 17.968H267.341L268.732 22.687H268.823L270.045 17.5H271.124L269.46 24H268.134L266.756 19.229H266.665L265.248 24H263.935ZM277.86 20.62C277.86 20.6807 277.851 20.815 277.834 21.023H272.985C273.019 21.673 273.214 22.1973 273.57 22.596C273.934 22.9947 274.415 23.194 275.013 23.194C275.437 23.194 275.797 23.103 276.092 22.921C276.395 22.7303 276.603 22.4573 276.716 22.102H277.821C277.682 22.7433 277.361 23.2417 276.859 23.597C276.356 23.9523 275.741 24.13 275.013 24.13C274.085 24.13 273.327 23.8267 272.738 23.22C272.148 22.6133 271.854 21.8117 271.854 20.815C271.854 19.7837 272.148 18.9517 272.738 18.319C273.327 17.6863 274.068 17.37 274.961 17.37C275.793 17.37 276.482 17.6517 277.028 18.215C277.582 18.7783 277.86 19.58 277.86 20.62ZM276.248 18.826C275.918 18.4793 275.489 18.306 274.961 18.306C274.432 18.306 273.986 18.488 273.622 18.852C273.266 19.2073 273.058 19.6537 272.998 20.191H276.755C276.746 19.6277 276.577 19.1727 276.248 18.826ZM279.426 24V14.77H280.557V24H279.426ZM282.32 24V14.77H283.451V24H282.32ZM284.875 19.463H289.646V20.451H284.875V19.463ZM294.291 17.37C295.166 17.37 295.881 17.6777 296.436 18.293C296.999 18.9083 297.281 19.723 297.281 20.737C297.281 21.7423 296.999 22.5613 296.436 23.194C295.881 23.818 295.166 24.13 294.291 24.13C293.398 24.13 292.701 23.779 292.198 23.077H292.12L292.016 24H291.08V14.77H292.211V18.358C292.679 17.6993 293.372 17.37 294.291 17.37ZM294.148 23.129C294.737 23.129 295.218 22.908 295.591 22.466C295.964 22.024 296.15 21.4477 296.15 20.737C296.15 20.035 295.964 19.4673 295.591 19.034C295.218 18.592 294.737 18.371 294.148 18.371C293.567 18.371 293.099 18.592 292.744 19.034C292.389 19.4673 292.211 20.035 292.211 20.737C292.211 21.4563 292.389 22.037 292.744 22.479C293.099 22.9123 293.567 23.129 294.148 23.129ZM304.494 20.62C304.494 20.6807 304.486 20.815 304.469 21.023H299.62C299.654 21.673 299.849 22.1973 300.205 22.596C300.569 22.9947 301.05 23.194 301.648 23.194C302.072 23.194 302.432 23.103 302.727 22.921C303.03 22.7303 303.238 22.4573 303.351 22.102H304.456C304.317 22.7433 303.996 23.2417 303.494 23.597C302.991 23.9523 302.376 24.13 301.648 24.13C300.72 24.13 299.962 23.8267 299.373 23.22C298.783 22.6133 298.489 21.8117 298.489 20.815C298.489 19.7837 298.783 18.9517 299.373 18.319C299.962 17.6863 300.703 17.37 301.596 17.37C302.428 17.37 303.117 17.6517 303.663 18.215C304.217 18.7783 304.494 19.58 304.494 20.62ZM302.883 18.826C302.553 18.4793 302.124 18.306 301.596 18.306C301.067 18.306 300.621 18.488 300.257 18.852C299.901 19.2073 299.693 19.6537 299.633 20.191H303.39C303.381 19.6277 303.212 19.1727 302.883 18.826ZM306.632 16.46C306.424 16.46 306.242 16.3863 306.086 16.239C305.939 16.0917 305.865 15.914 305.865 15.706C305.865 15.498 305.939 15.3247 306.086 15.186C306.242 15.0387 306.424 14.965 306.632 14.965C306.832 14.965 307.005 15.0387 307.152 15.186C307.3 15.3247 307.373 15.498 307.373 15.706C307.373 15.914 307.3 16.0917 307.152 16.239C307.005 16.3863 306.832 16.46 306.632 16.46ZM306.06 24V17.5H307.191V24H306.06ZM308.955 24V17.5H309.982L310.086 18.28H310.177C310.619 17.6733 311.247 17.37 312.062 17.37C312.773 17.37 313.345 17.591 313.778 18.033C314.211 18.475 314.428 19.1033 314.428 19.918V24H313.297V20.165C313.297 19.567 313.154 19.1207 312.868 18.826C312.591 18.5227 312.227 18.371 311.776 18.371C311.299 18.371 310.896 18.5357 310.567 18.865C310.246 19.1857 310.086 19.6623 310.086 20.295V24H308.955ZM321.735 17.552C321.44 17.8553 321.076 18.1153 320.643 18.332C320.912 18.7047 321.046 19.1293 321.046 19.606C321.046 20.2733 320.816 20.8107 320.357 21.218C319.898 21.6167 319.313 21.816 318.602 21.816C318.186 21.816 317.796 21.7423 317.432 21.595C317.146 21.7423 317.003 21.9373 317.003 22.18C317.003 22.5787 317.315 22.778 317.939 22.778H319.213C319.932 22.778 320.487 22.9383 320.877 23.259C321.276 23.5797 321.475 24.0303 321.475 24.611C321.475 25.287 321.215 25.807 320.695 26.171C320.184 26.5437 319.503 26.73 318.654 26.73C317.753 26.73 317.055 26.522 316.561 26.106C316.067 25.69 315.785 25.157 315.716 24.507L316.808 23.584C316.548 23.4887 316.34 23.337 316.184 23.129C316.037 22.921 315.963 22.6783 315.963 22.401C315.963 21.8897 316.24 21.4867 316.795 21.192C316.344 20.7847 316.119 20.256 316.119 19.606C316.119 18.956 316.344 18.423 316.795 18.007C317.246 17.5823 317.835 17.37 318.563 17.37C319.135 17.37 319.629 17.5043 320.045 17.773C320.444 17.5737 320.795 17.2747 321.098 16.876L321.735 17.552ZM317.601 20.568C317.861 20.8193 318.195 20.945 318.602 20.945C319.009 20.945 319.334 20.8193 319.577 20.568C319.828 20.308 319.954 19.9873 319.954 19.606C319.954 19.1987 319.833 18.8693 319.59 18.618C319.347 18.3667 319.018 18.241 318.602 18.241C318.186 18.241 317.848 18.3667 317.588 18.618C317.337 18.8693 317.211 19.1987 317.211 19.606C317.211 19.9873 317.341 20.308 317.601 20.568ZM320.383 24.663C320.383 24.325 320.253 24.0823 319.993 23.935C319.733 23.779 319.434 23.701 319.096 23.701H317.952L316.847 24.624C317.055 25.43 317.657 25.833 318.654 25.833C319.139 25.833 319.547 25.7333 319.876 25.534C320.214 25.3347 320.383 25.0443 320.383 24.663Z" fill="white"/>
<circle cx="278" cy="58" r="4" fill="#23786E"/>
<circle cx="278" cy="58" r="9" stroke="#23786E" stroke-opacity="0.2" stroke-width="10"/>
</svg>
