<svg width="74" height="16" viewBox="0 0 74 16" fill="none" xmlns="http://www.w3.org/2000/svg">
<path d="M17.8054 2.96154C16.4357 2.96154 15.1248 4.57692 15.1248 8.63461C15.1248 8.90385 15.1444 9.15385 15.1639 9.36538C17.2967 8.98077 19.3903 6.61538 19.3903 4.75C19.3903 3.63461 18.9011 2.96154 17.8054 2.96154ZM17.6097 16C14.9683 16 12.1116 14 12.1116 8.61538C12.1116 4.57692 13.716 0 17.8054 0C21.1512 0 22.4035 1.88461 22.4035 4.75C22.4035 8.48077 19.2729 11.1923 15.9662 12.1538C16.3183 12.7115 16.9445 13.0385 17.6097 13.0385C19.8012 13.0385 21.6991 11.1923 22.834 9.61538C24.3797 7.46154 25.5341 4.55769 26.5516 0.307692H29.5061L29.0169 5.69231H29.4278C30.5235 2.21154 32.128 0 34.7694 0C37.2544 0 38.5262 1.59615 38.5262 4.42308V15.6923H35.5325V4.67308C35.5325 3.5 35.2586 2.96154 34.3977 2.96154C33.3215 2.96154 32.4019 4.71154 31.3453 7.73077C30.6996 9.59615 30.0539 12.0385 29.5452 15.6923H26.5907L26.9625 8.80769H26.5711C25.2015 11.6346 21.9535 16 17.6097 16ZM5.85034 16C2.81756 16 0.0391327 14.1538 0 10.6923H2.97409C3.24802 12.2308 4.3633 13.0385 5.85034 13.0385C7.35695 13.0385 8.13961 12.3077 8.13961 11.4808C8.13961 10.7115 7.86568 10.0192 5.59598 9.44231C2.52406 8.65385 0.508726 7.13461 0.508726 4.46154C0.508726 1.57692 3.05235 0 5.65468 0C8.98096 0 11.1333 1.82692 11.1724 5H8.19831C8.00264 3.61538 6.88736 2.96154 5.65468 2.96154C4.422 2.96154 3.52195 3.53846 3.52195 4.53846C3.52195 5.53846 4.38287 6.11538 6.53517 6.67308C9.72448 7.5 11.1528 8.86538 11.1528 11.4038C11.1528 14.2885 9.00053 16 5.85034 16ZM45.5701 16C42.5373 16 39.7589 14.1538 39.7197 10.6923H42.6938C42.9677 12.2308 44.083 13.0385 45.5701 13.0385C47.0767 13.0385 47.8593 12.3077 47.8593 11.4808C47.8593 10.7115 47.5854 10.0192 45.3157 9.44231C42.2438 8.65385 40.2285 7.13461 40.2285 4.46154C40.2285 1.57692 42.7721 0 45.3744 0C48.7007 0 50.853 1.82692 50.8921 5H47.918C47.7224 3.61538 46.6071 2.96154 45.3744 2.96154C44.1417 2.96154 43.2417 3.53846 43.2417 4.53846C43.2417 5.53846 44.1026 6.11538 46.2549 6.67308C49.4442 7.5 50.8726 8.86538 50.8726 11.4038C50.8726 14.2885 48.7203 16 45.5701 16ZM57.5251 2.96154C56.1555 2.96154 54.8445 4.57692 54.8445 8.63461C54.8445 8.90385 54.8641 9.15385 54.8837 9.36538C57.0164 8.98077 59.11 6.61538 59.11 4.75C59.11 3.63461 58.6208 2.96154 57.5251 2.96154ZM51.8313 8.61538C51.8313 4.57692 53.4357 0 57.5251 0C60.871 0 62.1232 1.88461 62.1232 4.75C62.1232 8.48077 58.9926 11.1923 55.6859 12.1538C56.0381 12.7115 56.6642 13.0385 57.3295 13.0385C59.0317 13.0385 60.8514 11.8077 62.0254 10.0192H65.5669C65.8213 11.6538 67.1909 13.0385 68.6779 13.0385C70.1846 13.0385 70.9672 12.3077 70.9672 11.4808C70.9672 10.7115 70.6933 10.0192 68.4236 9.44231C65.3517 8.65385 63.3363 7.13461 63.3363 4.46154C63.3363 1.57692 65.88 0 68.4823 0C71.8086 0 73.9609 1.82692 74 5H71.0259C70.8302 3.61538 69.715 2.96154 68.4823 2.96154C67.2496 2.96154 66.3495 3.53846 66.3495 4.53846C66.3495 5.53846 67.2105 6.11538 69.3628 6.67308C72.5521 7.5 73.9804 8.86538 73.9804 11.4038C73.9804 14.2885 71.8281 16 68.6779 16C66.4865 16 64.6277 14.8077 63.6298 12.9615H63.3755C62.0058 14.8462 59.4818 16 57.3295 16C54.688 16 51.8313 14 51.8313 8.61538Z" fill="#41726A"/>
</svg>
